<mxfile host="Electron" agent="Mozilla/5.0 (X11; Linux x86_64) AppleWebKit/537.36 (KHTML, like Gecko) draw.io/28.1.2 Chrome/138.0.7204.243 Electron/37.4.0 Safari/537.36" version="28.1.2">
  <diagram name="Página-1" id="tQhZV-skRY4tRafobQuQ">
    <mxGraphModel dx="1617" dy="843" grid="1" gridSize="10" guides="1" tooltips="1" connect="1" arrows="1" fold="1" page="1" pageScale="1" pageWidth="827" pageHeight="1169" math="0" shadow="0">
      <root>
        <mxCell id="0" />
        <mxCell id="1" parent="0" />
        <mxCell id="EqdI6gn9L57robrdEJsj-1" value="&lt;div&gt;&lt;br&gt;&lt;/div&gt;&lt;div&gt;&lt;br&gt;&lt;/div&gt;&lt;div&gt;&lt;br&gt;&lt;/div&gt;&lt;div&gt;&lt;br&gt;&lt;/div&gt;&amp;lt;&amp;lt;Sistema RiwiMusic&amp;gt;&amp;gt;" style="dashed=1;rounded=1;absoluteArcSize=1;arcSize=20;html=1;verticalAlign=top;align=center;spacingTop=5;spacingLeft=10;whiteSpace=wrap;" vertex="1" parent="1">
          <mxGeometry x="189" y="200" width="450" height="480" as="geometry" />
        </mxCell>
        <mxCell id="EqdI6gn9L57robrdEJsj-3" value="Actor" style="shape=umlActor;verticalLabelPosition=bottom;verticalAlign=top;html=1;" vertex="1" parent="1">
          <mxGeometry x="70" y="350" width="90" height="180" as="geometry" />
        </mxCell>
        <mxCell id="EqdI6gn9L57robrdEJsj-4" value="Actor" style="shape=umlActor;verticalLabelPosition=bottom;verticalAlign=top;html=1;" vertex="1" parent="1">
          <mxGeometry x="680" y="350" width="90" height="180" as="geometry" />
        </mxCell>
        <mxCell id="EqdI6gn9L57robrdEJsj-7" value="Cliente" style="text;html=1;align=center;verticalAlign=middle;resizable=0;points=[];autosize=1;strokeColor=none;fillColor=none;" vertex="1" parent="1">
          <mxGeometry x="85" y="310" width="60" height="30" as="geometry" />
        </mxCell>
        <mxCell id="EqdI6gn9L57robrdEJsj-8" value="Administrador" style="text;html=1;align=center;verticalAlign=middle;resizable=0;points=[];autosize=1;strokeColor=none;fillColor=none;" vertex="1" parent="1">
          <mxGeometry x="675" y="310" width="100" height="30" as="geometry" />
        </mxCell>
        <mxCell id="EqdI6gn9L57robrdEJsj-9" value="Ver conciertos" style="html=1;dashed=0;rounded=1;absoluteArcSize=1;arcSize=20;verticalAlign=middle;align=center;whiteSpace=wrap;" vertex="1" parent="1">
          <mxGeometry x="220" y="355" width="160" height="50" as="geometry" />
        </mxCell>
        <mxCell id="EqdI6gn9L57robrdEJsj-10" value="*" style="text;resizeWidth=0;resizeHeight=0;points=[];part=1;verticalAlign=middle;align=center;html=1;" vertex="1" parent="EqdI6gn9L57robrdEJsj-9">
          <mxGeometry x="1" y="0.5" width="19" height="20" relative="1" as="geometry">
            <mxPoint x="-163" y="-10" as="offset" />
          </mxGeometry>
        </mxCell>
        <mxCell id="EqdI6gn9L57robrdEJsj-11" value="Comprar tickets" style="html=1;dashed=0;rounded=1;absoluteArcSize=1;arcSize=20;verticalAlign=middle;align=center;whiteSpace=wrap;" vertex="1" parent="1">
          <mxGeometry x="220" y="415" width="160" height="50" as="geometry" />
        </mxCell>
        <mxCell id="EqdI6gn9L57robrdEJsj-12" value="*" style="text;resizeWidth=0;resizeHeight=0;points=[];part=1;verticalAlign=middle;align=center;html=1;" vertex="1" parent="EqdI6gn9L57robrdEJsj-11">
          <mxGeometry x="1" y="0.5" width="19" height="20" relative="1" as="geometry">
            <mxPoint x="-161" y="-10" as="offset" />
          </mxGeometry>
        </mxCell>
        <mxCell id="EqdI6gn9L57robrdEJsj-13" value="Consultar compras" style="html=1;dashed=0;rounded=1;absoluteArcSize=1;arcSize=20;verticalAlign=middle;align=center;whiteSpace=wrap;" vertex="1" parent="1">
          <mxGeometry x="220" y="475" width="160" height="50" as="geometry" />
        </mxCell>
        <mxCell id="EqdI6gn9L57robrdEJsj-14" value="*" style="text;resizeWidth=0;resizeHeight=0;points=[];part=1;verticalAlign=middle;align=center;html=1;" vertex="1" parent="EqdI6gn9L57robrdEJsj-13">
          <mxGeometry x="1" y="0.5" width="19" height="20" relative="1" as="geometry">
            <mxPoint x="-161" y="-10" as="offset" />
          </mxGeometry>
        </mxCell>
        <mxCell id="EqdI6gn9L57robrdEJsj-15" value="Gestionar clientes" style="html=1;dashed=0;rounded=1;absoluteArcSize=1;arcSize=20;verticalAlign=middle;align=center;whiteSpace=wrap;" vertex="1" parent="1">
          <mxGeometry x="450" y="350" width="160" height="50" as="geometry" />
        </mxCell>
        <mxCell id="EqdI6gn9L57robrdEJsj-16" value="*" style="text;resizeWidth=0;resizeHeight=0;points=[];part=1;verticalAlign=middle;align=center;html=1;" vertex="1" parent="EqdI6gn9L57robrdEJsj-15">
          <mxGeometry x="1" y="0.5" width="20" height="20" relative="1" as="geometry">
            <mxPoint x="-20" y="-10" as="offset" />
          </mxGeometry>
        </mxCell>
        <mxCell id="EqdI6gn9L57robrdEJsj-17" value="Gestionar conciertos" style="html=1;dashed=0;rounded=1;absoluteArcSize=1;arcSize=20;verticalAlign=middle;align=center;whiteSpace=wrap;" vertex="1" parent="1">
          <mxGeometry x="450" y="410" width="160" height="50" as="geometry" />
        </mxCell>
        <mxCell id="EqdI6gn9L57robrdEJsj-18" value="*" style="text;resizeWidth=0;resizeHeight=0;points=[];part=1;verticalAlign=middle;align=center;html=1;" vertex="1" parent="EqdI6gn9L57robrdEJsj-17">
          <mxGeometry x="1" y="0.5" width="20" height="20" relative="1" as="geometry">
            <mxPoint x="-20" y="-10" as="offset" />
          </mxGeometry>
        </mxCell>
        <mxCell id="EqdI6gn9L57robrdEJsj-19" value="Gestionar tickets" style="html=1;dashed=0;rounded=1;absoluteArcSize=1;arcSize=20;verticalAlign=middle;align=center;whiteSpace=wrap;" vertex="1" parent="1">
          <mxGeometry x="450" y="470" width="160" height="50" as="geometry" />
        </mxCell>
        <mxCell id="EqdI6gn9L57robrdEJsj-20" value="*" style="text;resizeWidth=0;resizeHeight=0;points=[];part=1;verticalAlign=middle;align=center;html=1;" vertex="1" parent="EqdI6gn9L57robrdEJsj-19">
          <mxGeometry x="1" y="0.5" width="20" height="20" relative="1" as="geometry">
            <mxPoint x="-20" y="-10" as="offset" />
          </mxGeometry>
        </mxCell>
        <mxCell id="EqdI6gn9L57robrdEJsj-23" value="Consultar conciertos&lt;div&gt;(ciudad, fecha, más vendidos, ingresos, clientes, historial)&lt;/div&gt;" style="html=1;dashed=0;rounded=1;absoluteArcSize=1;arcSize=20;verticalAlign=middle;align=center;whiteSpace=wrap;" vertex="1" parent="1">
          <mxGeometry x="450" y="530" width="160" height="120" as="geometry" />
        </mxCell>
        <mxCell id="EqdI6gn9L57robrdEJsj-24" value="*" style="text;resizeWidth=0;resizeHeight=0;points=[];part=1;verticalAlign=middle;align=center;html=1;" vertex="1" parent="EqdI6gn9L57robrdEJsj-23">
          <mxGeometry x="1" y="0.5" width="20" height="20" relative="1" as="geometry">
            <mxPoint x="-20" y="-10" as="offset" />
          </mxGeometry>
        </mxCell>
        <mxCell id="EqdI6gn9L57robrdEJsj-31" value="" style="endArrow=block;startArrow=none;endFill=0;startFill=0;endSize=8;html=1;verticalAlign=bottom;dashed=1;labelBackgroundColor=none;rounded=0;exitX=1;exitY=0.3333333333333333;exitDx=0;exitDy=0;exitPerimeter=0;" edge="1" parent="1" source="EqdI6gn9L57robrdEJsj-3" target="EqdI6gn9L57robrdEJsj-9">
          <mxGeometry width="160" relative="1" as="geometry">
            <mxPoint x="330" y="430" as="sourcePoint" />
            <mxPoint x="490" y="430" as="targetPoint" />
          </mxGeometry>
        </mxCell>
        <mxCell id="EqdI6gn9L57robrdEJsj-32" value="" style="endArrow=block;startArrow=none;endFill=0;startFill=0;endSize=8;html=1;verticalAlign=bottom;dashed=1;labelBackgroundColor=none;rounded=0;exitX=1;exitY=0.3333333333333333;exitDx=0;exitDy=0;exitPerimeter=0;" edge="1" parent="1" source="EqdI6gn9L57robrdEJsj-3" target="EqdI6gn9L57robrdEJsj-11">
          <mxGeometry width="160" relative="1" as="geometry">
            <mxPoint x="230" y="433" as="sourcePoint" />
            <mxPoint x="290" y="420" as="targetPoint" />
          </mxGeometry>
        </mxCell>
        <mxCell id="EqdI6gn9L57robrdEJsj-33" value="" style="endArrow=block;startArrow=none;endFill=0;startFill=0;endSize=8;html=1;verticalAlign=bottom;dashed=1;labelBackgroundColor=none;rounded=0;" edge="1" parent="1" target="EqdI6gn9L57robrdEJsj-13">
          <mxGeometry width="160" relative="1" as="geometry">
            <mxPoint x="160" y="410" as="sourcePoint" />
            <mxPoint x="290" y="443" as="targetPoint" />
          </mxGeometry>
        </mxCell>
        <mxCell id="EqdI6gn9L57robrdEJsj-34" value="" style="endArrow=block;startArrow=none;endFill=0;startFill=0;endSize=8;html=1;verticalAlign=bottom;dashed=1;labelBackgroundColor=none;rounded=0;exitX=0;exitY=0.3333333333333333;exitDx=0;exitDy=0;exitPerimeter=0;" edge="1" parent="1" source="EqdI6gn9L57robrdEJsj-4" target="EqdI6gn9L57robrdEJsj-15">
          <mxGeometry width="160" relative="1" as="geometry">
            <mxPoint x="300" y="480" as="sourcePoint" />
            <mxPoint x="360" y="493" as="targetPoint" />
          </mxGeometry>
        </mxCell>
        <mxCell id="EqdI6gn9L57robrdEJsj-35" value="" style="endArrow=block;startArrow=none;endFill=0;startFill=0;endSize=8;html=1;verticalAlign=bottom;dashed=1;labelBackgroundColor=none;rounded=0;exitX=0;exitY=0.3333333333333333;exitDx=0;exitDy=0;exitPerimeter=0;" edge="1" parent="1" source="EqdI6gn9L57robrdEJsj-4" target="EqdI6gn9L57robrdEJsj-17">
          <mxGeometry width="160" relative="1" as="geometry">
            <mxPoint x="640" y="406" as="sourcePoint" />
            <mxPoint x="570" y="390" as="targetPoint" />
          </mxGeometry>
        </mxCell>
        <mxCell id="EqdI6gn9L57robrdEJsj-36" value="" style="endArrow=block;startArrow=none;endFill=0;startFill=0;endSize=8;html=1;verticalAlign=bottom;dashed=1;labelBackgroundColor=none;rounded=0;" edge="1" parent="1" target="EqdI6gn9L57robrdEJsj-19">
          <mxGeometry width="160" relative="1" as="geometry">
            <mxPoint x="680" y="410" as="sourcePoint" />
            <mxPoint x="580" y="452" as="targetPoint" />
          </mxGeometry>
        </mxCell>
        <mxCell id="EqdI6gn9L57robrdEJsj-37" value="" style="endArrow=block;startArrow=none;endFill=0;startFill=0;endSize=8;html=1;verticalAlign=bottom;dashed=1;labelBackgroundColor=none;rounded=0;exitX=0;exitY=0.3333333333333333;exitDx=0;exitDy=0;exitPerimeter=0;" edge="1" parent="1" source="EqdI6gn9L57robrdEJsj-4" target="EqdI6gn9L57robrdEJsj-23">
          <mxGeometry width="160" relative="1" as="geometry">
            <mxPoint x="676" y="500" as="sourcePoint" />
            <mxPoint x="570" y="560" as="targetPoint" />
          </mxGeometry>
        </mxCell>
        <mxCell id="EqdI6gn9L57robrdEJsj-38" value="&lt;h1 style=&quot;margin-top: 0px;&quot;&gt;Diagrama de casos de uso&lt;/h1&gt;" style="text;html=1;whiteSpace=wrap;overflow=hidden;rounded=0;" vertex="1" parent="1">
          <mxGeometry x="254" y="220" width="320" height="50" as="geometry" />
        </mxCell>
      </root>
    </mxGraphModel>
  </diagram>
</mxfile>
